<svg xmlns="http://www.w3.org/2000/svg" width="93" height="93" viewBox="0 0 93 93"><defs><clipPath id="c1mha"><path fill="#fff" d="M0 93V0h93v93zm1-46.5C1 71.629 21.371 92 46.5 92S92 71.629 92 46.5 71.63 1 46.5 1 1 21.371 1 46.5z"/></clipPath></defs><g><g><path fill="#ebebeb" d="M46.5 1C71.629 1 92 21.371 92 46.5S71.63 92 46.5 92 1 71.629 1 46.5 21.371 1 46.5 1z"/><path fill="none" stroke="#fff" stroke-linecap="round" stroke-linejoin="round" stroke-miterlimit="20" stroke-width="2" d="M46.5 1C71.629 1 92 21.371 92 46.5S71.63 92 46.5 92 1 71.629 1 46.5 21.371 1 46.5 1z" clip-path="url(&quot;#c1mha&quot;)"/></g></g></svg>