<svg xmlns="http://www.w3.org/2000/svg" width="26" height="17" viewBox="0 0 26 17"><g><g><path fill="#fff" d="M26 3.239v10.523A3.244 3.244 0 0 1 22.75 17H3.25A3.244 3.244 0 0 1 0 13.762V3.238A3.244 3.244 0 0 1 3.25 0h19.5C24.545 0 26 1.45 26 3.24zm-24.375 9.51L7.312 8.5 1.625 4.25zm22.75 1.013l-6.363-4.756-3.55 2.653a2.447 2.447 0 0 1-2.924 0l-3.55-2.653-6.363 4.756c0 .893.73 1.619 1.625 1.619h19.5c.896 0 1.625-.726 1.625-1.62zm0-9.512L18.688 8.5l5.687 4.25zm0-1.011c0-.893-.73-1.62-1.625-1.62H3.25c-.896 0-1.625.727-1.625 1.62l6.364 4.755.676.506 3.36 2.51c.284.212.621.325.975.325s.691-.113.975-.324z"/></g></g></svg>