<svg xmlns="http://www.w3.org/2000/svg" width="15" height="12" viewBox="0 0 15 12"><defs><mask id="5yztb" width="2" height="2" x="-1" y="-1"><path fill="#fff" d="M0 0h15v11H0z"/><path d="M.171 7.55s2.918 2.537 5.239.022c0 0-.389 0-.637-.192-.227-.174-.317-.541-.317-.541s.721-.404.45-.71c0 0-1.596-.031-1.685-.995l.937-.605s-.368.178-.733-.003c0 0-.946-.68-.766-1.374l.791-.081s-1.372-.975-.989-1.724c0 0 .132-.645 4.67 2.369 0 0 .8-2.848 2.279-3.474 0 0 .245.118.245.243 0 0 .21-.45.486-.492 0 0 .334.294.117.462 0 0 .562-.385.837-.19 0 0-.023.342-.83.768 0 0 2.097.116 2.829 2.913 0 0 .91.327 1.764-.222 0 0 .07.413-1.255.998 0 0 .123.199 1.234.047 0 0-.008.828-1.767.82 0 0-1.485 4.303-5.094 4.895C3.59 11.204.51 9.011.171 7.55z"/></mask><filter id="5yzta" width="35.2" height="32" x="-10.2" y="-10" filterUnits="userSpaceOnUse"><feOffset dx="-.2" dy="1" in="SourceGraphic" result="FeOffset1080Out"/><feGaussianBlur in="FeOffset1080Out" result="FeGaussianBlur1081Out" stdDeviation="0 0"/></filter><filter id="5yztc" width="200%" height="200%" x="-50%" y="-50%"><feGaussianBlur in="SourceGraphic" result="FeGaussianBlur1086Out" stdDeviation="0 0"/></filter><mask id="5yztd"><path fill="#fff" d="M.171 7.55s2.918 2.537 5.239.022c0 0-.389 0-.637-.192-.227-.174-.317-.541-.317-.541s.721-.404.45-.71c0 0-1.596-.031-1.685-.995l.937-.605s-.368.178-.733-.003c0 0-.946-.68-.766-1.374l.791-.081s-1.372-.975-.989-1.724c0 0 .132-.645 4.67 2.369 0 0 .8-2.848 2.279-3.474 0 0 .245.118.245.243 0 0 .21-.45.486-.492 0 0 .334.294.117.462 0 0 .562-.385.837-.19 0 0-.023.342-.83.768 0 0 2.097.116 2.829 2.913 0 0 .91.327 1.764-.222 0 0 .07.413-1.255.998 0 0 .123.199 1.234.047 0 0-.008.828-1.767.82 0 0-1.485 4.303-5.094 4.895C3.59 11.204.51 9.011.171 7.55z"/></mask></defs><g><g><g filter="url(#5yzta)"><path fill="none" d="M.171 7.55s2.918 2.537 5.239.022c0 0-.389 0-.637-.192-.227-.174-.317-.541-.317-.541s.721-.404.45-.71c0 0-1.596-.031-1.685-.995l.937-.605s-.368.178-.733-.003c0 0-.946-.68-.766-1.374l.791-.081s-1.372-.975-.989-1.724c0 0 .132-.645 4.67 2.369 0 0 .8-2.848 2.279-3.474 0 0 .245.118.245.243 0 0 .21-.45.486-.492 0 0 .334.294.117.462 0 0 .562-.385.837-.19 0 0-.023.342-.83.768 0 0 2.097.116 2.829 2.913 0 0 .91.327 1.764-.222 0 0 .07.413-1.255.998 0 0 .123.199 1.234.047 0 0-.008.828-1.767.82 0 0-1.485 4.303-5.094 4.895C3.59 11.204.51 9.011.171 7.55z" mask="url(&quot;#5yztb&quot;)"/><path fill="#fff" d="M.171 7.55s2.918 2.537 5.239.022c0 0-.389 0-.637-.192-.227-.174-.317-.541-.317-.541s.721-.404.45-.71c0 0-1.596-.031-1.685-.995l.937-.605s-.368.178-.733-.003c0 0-.946-.68-.766-1.374l.791-.081s-1.372-.975-.989-1.724c0 0 .132-.645 4.67 2.369 0 0 .8-2.848 2.279-3.474 0 0 .245.118.245.243 0 0 .21-.45.486-.492 0 0 .334.294.117.462 0 0 .562-.385.837-.19 0 0-.023.342-.83.768 0 0 2.097.116 2.829 2.913 0 0 .91.327 1.764-.222 0 0 .07.413-1.255.998 0 0 .123.199 1.234.047 0 0-.008.828-1.767.82 0 0-1.485 4.303-5.094 4.895C3.59 11.204.51 9.011.171 7.55z"/></g><path fill="#0099d6" d="M.171 7.55s2.918 2.537 5.239.022c0 0-.389 0-.637-.192-.227-.174-.317-.541-.317-.541s.721-.404.45-.71c0 0-1.596-.031-1.685-.995l.937-.605s-.368.178-.733-.003c0 0-.946-.68-.766-1.374l.791-.081s-1.372-.975-.989-1.724c0 0 .132-.645 4.67 2.369 0 0 .8-2.848 2.279-3.474 0 0 .245.118.245.243 0 0 .21-.45.486-.492 0 0 .334.294.117.462 0 0 .562-.385.837-.19 0 0-.023.342-.83.768 0 0 2.097.116 2.829 2.913 0 0 .91.327 1.764-.222 0 0 .07.413-1.255.998 0 0 .123.199 1.234.047 0 0-.008.828-1.767.82 0 0-1.485 4.303-5.094 4.895C3.59 11.204.51 9.011.171 7.55z"/><path fill-opacity=".16" d="M0 12V-1h10.108c-.26.07-.453.485-.453.485 0-.125-.245-.243-.245-.243-1.478.626-2.278 3.474-2.278 3.474C2.593-.298 2.462.346 2.462.346c-.384.75.988 1.725.988 1.725l-.79.08c-.181.696.765 1.375.765 1.375.365.182.733.003.733.003l-.937.605c.089.964 1.685.996 1.685.996.271.305-.45.709-.45.709s.09.367.317.54c.248.192.637.193.637.193C3.09 9.087.17 6.55.17 6.55c.339 1.461 3.42 3.654 7.806 2.934 3.608-.592 5.093-4.894 5.093-4.894 1.759.007 1.767-.82 1.767-.82-1.111.15-1.234-.048-1.234-.048 1.326-.585 1.255-.998 1.255-.998-.854.55-1.764.222-1.764.222-.732-2.797-2.83-2.913-2.83-2.913.809-.426.831-.768.831-.768-.275-.195-.837.19-.837.19.197-.153-.06-.41-.109-.455H15v13zM10.141-1.007a.295.295 0 0 0-.033.007h.041l-.008-.007z" filter="url(#5yztc)" mask="url(&quot;#5yztd&quot;)"/></g></g></svg>